<?xml version="1.0" standalone="no"?>
<!DOCTYPE svg PUBLIC "-//W3C//DTD SVG 20010904//EN"
 "http://www.w3.org/TR/2001/REC-SVG-20010904/DTD/svg10.dtd">
<svg version="1.0" xmlns="http://www.w3.org/2000/svg"
 width="512.000000pt" height="512.000000pt" viewBox="0 0 512.000000 512.000000"
 preserveAspectRatio="xMidYMid meet">

<g transform="translate(0.000000,512.000000) scale(0.100000,-0.100000)"
fill="#5956e9" stroke="none">
<path d="M870 4421 c-117 -38 -189 -142 -177 -255 9 -89 55 -158 132 -199 56
-30 164 -30 221 0 47 25 94 75 113 121 l13 32 279 0 c154 0 279 -2 279 -4 0
-2 -30 -21 -67 -42 -138 -76 -250 -160 -363 -274 -177 -176 -297 -370 -375
-602 -34 -102 -75 -306 -75 -373 l0 -33 -61 -4 c-97 -7 -99 -12 -99 -228 0
-242 -17 -225 223 -225 246 0 227 -19 227 225 0 218 -1 220 -95 228 -65 5 -64
2 -40 147 45 282 172 537 368 742 117 122 233 208 379 283 166 84 398 150 529
150 l39 0 0 -69 c0 -102 -2 -101 242 -101 238 0 238 0 238 105 l0 65 39 0
c131 0 363 -66 529 -150 422 -215 710 -633 758 -1101 l6 -66 -56 -5 c-95 -8
-96 -9 -96 -228 0 -244 -19 -225 227 -225 240 0 223 -17 223 225 0 216 -2 221
-99 228 l-61 4 0 33 c0 66 -40 263 -74 367 -122 372 -385 686 -738 882 -38 21
-68 40 -68 42 0 2 125 4 279 4 l279 0 13 -32 c19 -46 66 -96 113 -121 57 -30
165 -30 221 0 47 25 85 64 111 113 25 48 25 162 0 210 -48 91 -119 134 -221
134 -102 0 -175 -44 -219 -131 l-17 -33 -574 0 -575 0 0 69 c0 102 1 101 -240
101 -241 0 -240 1 -240 -101 l0 -69 -575 0 -574 0 -17 33 c-23 46 -63 86 -108
109 -43 22 -136 32 -176 19z m136 -165 c26 -26 34 -42 34 -71 0 -52 -53 -105
-105 -105 -52 0 -105 53 -105 105 0 52 53 105 105 105 29 0 45 -8 71 -34z
m1654 -71 l0 -105 -100 0 -100 0 0 105 0 105 100 0 100 0 0 -105z m1596 71
c26 -26 34 -42 34 -71 0 -29 -8 -45 -34 -71 -26 -26 -42 -34 -71 -34 -29 0
-45 8 -71 34 -26 26 -34 42 -34 71 0 29 8 45 34 71 26 26 42 34 71 34 29 0 45
-8 71 -34z m-3256 -1696 l0 -90 -85 0 -85 0 0 90 0 90 85 0 85 0 0 -90z m3290
0 l0 -90 -85 0 -85 0 0 90 0 90 85 0 85 0 0 -90z"/>
<path d="M2398 3648 c-27 -21 -758 -1305 -757 -1330 0 -13 78 -183 173 -378
l173 -355 -62 -7 c-101 -10 -180 -62 -221 -145 -14 -28 -20 -66 -22 -139 -3
-87 -1 -108 18 -152 28 -66 95 -128 155 -144 l45 -12 0 -124 c0 -117 1 -124
25 -147 l24 -25 611 0 611 0 24 25 c24 23 25 30 25 147 l0 124 43 11 c57 16
125 76 153 137 20 42 24 68 24 142 0 50 -5 106 -12 125 -33 99 -121 166 -232
177 l-63 7 173 355 c95 195 173 365 173 378 1 25 -730 1309 -757 1330 -27 21
-69 14 -91 -14 -21 -26 -21 -35 -21 -611 l0 -585 44 -43 c79 -77 86 -167 17
-236 -65 -65 -157 -65 -222 0 -69 69 -62 159 17 236 l44 43 0 585 c0 576 0
585 -21 611 -22 28 -64 35 -91 14z m-58 -1179 c-53 -58 -74 -115 -75 -199 0
-122 56 -213 168 -272 60 -33 194 -33 254 0 66 35 110 79 140 140 23 47 28 70
28 132 -1 84 -22 141 -75 199 l-30 32 2 411 3 411 289 -503 288 -503 -107
-221 c-59 -122 -139 -287 -178 -368 l-70 -148 -417 0 -417 0 -70 148 c-39 81
-119 246 -178 368 l-107 221 288 503 289 503 3 -411 2 -411 -30 -32z m900
-1044 c44 -23 60 -63 60 -150 0 -72 -2 -77 -34 -113 l-34 -37 -672 0 -672 0
-34 37 c-32 36 -34 41 -34 113 0 86 16 127 58 149 41 23 1319 23 1362 1z
m-160 -520 l0 -75 -520 0 -520 0 0 75 0 75 520 0 520 0 0 -75z"/>
</g>
</svg>
