<?xml version="1.0" standalone="no"?>
<!DOCTYPE svg PUBLIC "-//W3C//DTD SVG 20010904//EN"
 "http://www.w3.org/TR/2001/REC-SVG-20010904/DTD/svg10.dtd">
<svg version="1.0" xmlns="http://www.w3.org/2000/svg"
 width="800.000000pt" height="247.000000pt" viewBox="0 0 800.000000 247.000000"
 preserveAspectRatio="xMidYMid meet">

<g transform="translate(0.000000,247.000000) scale(0.100000,-0.100000)"
fill="#000000" stroke="none">
<path d="M425 2226 l-420 -244 -3 -245 -2 -245 209 -121 c115 -66 211 -121
215 -121 3 0 6 110 6 244 l0 244 403 232 c221 128 410 239 420 245 16 11 -7
27 -192 134 -115 66 -211 121 -213 121 -2 -1 -192 -110 -423 -244z"/>
<path d="M2130 1125 l0 -735 125 0 125 0 0 270 0 270 265 0 265 0 0 120 0 120
-265 0 -265 0 0 220 0 220 285 0 285 0 0 125 0 125 -410 0 -410 0 0 -735z"/>
<path d="M7740 1125 l0 -735 120 0 120 0 0 735 0 735 -120 0 -120 0 0 -735z"/>
<path d="M5927 1734 c-4 -4 -7 -308 -7 -676 l0 -668 125 0 125 0 0 390 0 390
125 0 125 0 0 125 0 125 -125 0 -124 0 -3 158 -3 157 -116 3 c-63 1 -118 -1
-122 -4z"/>
<path d="M3971 1424 c-88 -23 -167 -72 -233 -142 -159 -171 -191 -419 -82
-640 142 -290 521 -369 741 -155 l43 42 0 -69 0 -70 120 0 120 0 0 515 0 515
-120 0 -120 0 0 -66 0 -67 -44 41 c-106 98 -275 136 -425 96z m283 -225 c67
-25 133 -86 166 -153 34 -72 39 -182 11 -257 -64 -168 -249 -250 -409 -180
-66 29 -141 110 -165 177 -24 68 -22 169 4 241 58 153 236 231 393 172z"/>
<path d="M5191 1424 c-128 -34 -249 -128 -308 -239 -50 -95 -67 -167 -67 -280
0 -167 51 -292 160 -394 101 -95 220 -141 367 -141 190 0 342 77 438 220 l30
45 -98 46 -98 47 -50 -54 c-63 -67 -120 -93 -202 -94 -164 0 -296 114 -322
281 -21 131 61 282 184 341 123 58 259 31 345 -70 l43 -50 91 44 c50 25 92 49
94 54 6 17 -36 75 -91 127 -99 93 -210 133 -367 132 -52 0 -119 -7 -149 -15z"/>
<path d="M6855 1426 c-121 -30 -219 -99 -289 -204 -142 -215 -123 -512 45
-696 96 -105 212 -157 354 -159 125 -1 217 35 308 122 l47 45 0 -72 0 -72 120
0 120 0 0 515 0 515 -120 0 -120 0 0 -68 0 -69 -44 42 c-100 96 -273 138 -421
101z m263 -221 c68 -20 151 -97 183 -167 34 -77 34 -203 -1 -273 -35 -73 -105
-138 -171 -161 -193 -66 -389 58 -414 261 -8 58 13 156 42 203 78 127 217 179
361 137z"/>
<path d="M3050 905 l0 -515 120 0 120 0 0 390 0 390 125 0 125 0 0 125 0 125
-245 0 -245 0 0 -515z"/>
<path d="M418 997 l-418 -242 0 -245 1 -245 200 -115 c110 -63 206 -116 214
-118 13 -3 15 31 15 240 l1 243 415 239 c228 132 417 242 419 246 4 7 -392
234 -414 237 -9 1 -204 -107 -433 -240z"/>
</g>
</svg>
