<?xml version="1.0" standalone="no"?>
<!DOCTYPE svg PUBLIC "-//W3C//DTD SVG 20010904//EN"
 "http://www.w3.org/TR/2001/REC-SVG-20010904/DTD/svg10.dtd">
<svg version="1.0" xmlns="http://www.w3.org/2000/svg"
 width="512.000000pt" height="512.000000pt" viewBox="0 0 512.000000 512.000000"
 preserveAspectRatio="xMidYMid meet">

<g transform="translate(0.000000,512.000000) scale(0.100000,-0.100000)"
fill="#5956e9" stroke="none">
<path d="M3550 4954 c-14 -2 -56 -9 -95 -15 -38 -6 -115 -26 -171 -44 -472
-154 -819 -578 -872 -1065 l-7 -65 -105 -3 -105 -3 -105 106 c-57 58 -109 105
-115 105 -13 0 -105 -92 -105 -105 0 -5 21 -31 47 -57 l47 -48 -194 0 c-214 0
-287 -9 -400 -46 -126 -42 -215 -99 -320 -204 -165 -165 -250 -365 -250 -590
0 -225 85 -425 250 -590 106 -105 195 -162 320 -204 127 -42 181 -46 680 -46
l475 0 105 -105 c58 -58 108 -105 113 -105 9 0 107 100 107 109 0 3 -21 27
-47 53 l-47 48 781 0 c541 0 798 -3 835 -11 223 -48 379 -274 341 -494 -31
-183 -166 -327 -341 -364 -34 -7 -190 -11 -435 -11 l-382 0 -105 105 c-58 58
-109 105 -115 105 -13 0 -105 -92 -105 -105 0 -5 21 -31 47 -57 l47 -48 -622
0 -622 0 0 -80 0 -80 622 0 622 0 -49 -50 -50 -50 58 -57 57 -58 108 108 107
107 396 0 c361 0 403 2 473 20 113 29 190 73 276 160 87 86 131 163 160 276
36 141 18 294 -52 427 -42 81 -164 203 -245 245 -34 18 -96 41 -139 52 -74 19
-113 20 -873 20 l-795 0 47 48 c26 26 47 52 47 58 0 13 -93 104 -106 104 -5 0
-57 -47 -114 -105 l-105 -106 -505 3 -505 3 -80 27 c-109 37 -195 90 -274 169
-330 330 -236 885 184 1089 117 57 199 70 427 70 l192 0 -47 -48 c-26 -26 -47
-52 -47 -58 0 -13 93 -104 106 -104 5 0 57 47 114 105 l105 106 105 -3 105 -3
7 -65 c18 -167 82 -357 167 -499 248 -412 690 -651 1161 -627 330 16 606 139
841 375 147 146 240 293 307 481 52 149 66 237 66 420 0 183 -14 271 -66 420
-67 188 -160 335 -307 481 -182 182 -382 293 -631 350 -81 19 -340 34 -400 23z
m300 -169 c235 -35 449 -144 620 -315 438 -439 438 -1141 0 -1580 -389 -389
-989 -438 -1440 -119 -245 173 -420 465 -458 762 l-9 68 121 -3 c121 -3 121
-3 124 -28 19 -179 118 -380 256 -515 343 -339 896 -337 1237 4 343 343 343
898 -1 1241 -342 343 -892 345 -1236 5 -138 -135 -237 -336 -256 -515 -3 -25
-3 -25 -124 -28 l-121 -3 9 68 c5 37 20 108 34 157 152 543 685 886 1244 801z
m45 -419 c113 -36 198 -89 290 -181 91 -91 144 -175 182 -290 23 -71 26 -96
26 -215 0 -119 -3 -144 -26 -215 -38 -115 -91 -199 -182 -290 -91 -91 -175
-144 -290 -182 -70 -23 -96 -27 -215 -27 -126 0 -141 2 -223 31 -121 43 -188
85 -282 178 -114 114 -183 243 -201 374 l-7 51 259 0 258 0 -47 -48 c-26 -26
-47 -52 -47 -57 0 -13 92 -105 105 -105 6 0 68 58 138 128 112 113 127 133
127 162 0 29 -15 49 -127 162 -70 70 -132 128 -137 128 -13 0 -106 -91 -106
-104 0 -6 21 -32 47 -58 l47 -48 -257 0 -257 0 0 29 c0 48 46 181 87 250 103
176 301 316 495 351 91 16 253 5 343 -24z"/>
<path d="M3680 4081 l0 -79 48 -7 c59 -8 155 -59 188 -98 14 -16 37 -53 52
-81 22 -43 26 -64 26 -136 1 -78 -2 -90 -33 -148 -19 -35 -48 -74 -64 -88 -45
-38 -117 -71 -170 -79 l-47 -7 0 -79 0 -79 28 0 c15 0 54 7 85 15 173 45 307
178 352 350 65 251 -94 513 -352 580 -31 8 -70 15 -85 15 l-28 0 0 -79z"/>
<path d="M185 2055 c-14 -13 -25 -35 -25 -47 0 -13 39 -114 86 -223 47 -110
98 -230 114 -267 l29 -67 -115 -152 c-79 -105 -114 -161 -114 -179 0 -18 35
-74 114 -179 l115 -152 -29 -67 c-16 -37 -67 -157 -114 -267 -47 -109 -86
-210 -86 -223 0 -31 43 -72 75 -72 30 0 1640 881 1668 912 9 11 17 33 17 48 0
15 -8 37 -17 48 -28 31 -1638 912 -1668 912 -14 0 -37 -11 -50 -25z m670 -485
c231 -127 404 -229 385 -225 -68 14 -703 164 -705 167 -2 3 -112 260 -123 287
-4 10 -1 13 9 9 8 -3 203 -110 434 -238z m156 -337 c253 -59 459 -110 459
-113 0 -3 -208 -54 -462 -113 -255 -60 -470 -111 -479 -113 -11 -3 -42 30
-103 111 l-86 115 87 116 c69 92 90 114 106 110 11 -3 226 -53 478 -113z m244
-341 c-18 -16 -837 -463 -841 -459 -6 6 119 292 131 297 14 6 686 167 705 169
8 1 10 -2 5 -7z"/>
</g>
</svg>
